<svg xmlns="http://www.w3.org/2000/svg" viewBox="0 0 100 100"><path fill="#c7ede6" d="M87.215,56.71C88.35,54.555,89,52.105,89,49.5c0-6.621-4.159-12.257-10.001-14.478 C78.999,35.015,79,35.008,79,35c0-11.598-9.402-21-21-21c-9.784,0-17.981,6.701-20.313,15.757C36.211,29.272,34.638,29,33,29 c-7.692,0-14.023,5.793-14.89,13.252C12.906,43.353,9,47.969,9,53.5C9,59.851,14.149,65,20.5,65c0.177,0,0.352-0.012,0.526-0.022 C21.022,65.153,21,65.324,21,65.5C21,76.822,30.178,86,41.5,86c6.437,0,12.175-2.972,15.934-7.614C59.612,80.611,62.64,82,66,82 c4.65,0,8.674-2.65,10.666-6.518C77.718,75.817,78.837,76,80,76c6.075,0,11-4.925,11-11C91,61.689,89.53,58.727,87.215,56.71z"/><path fill="#fff" d="M60.5 19h-1c-.276 0-.5-.224-.5-.5s.224-.5.5-.5h1c.276 0 .5.224.5.5S60.776 19 60.5 19zM63.5 19h-1c-.276 0-.5-.224-.5-.5s.224-.5.5-.5h1c.276 0 .5.224.5.5S63.776 19 63.5 19zM66.5 21h-2c-.276 0-.5-.224-.5-.5s.224-.5.5-.5h2c.276 0 .5.224.5.5S66.776 21 66.5 21zM73.5 23h-1c-.276 0-.5-.224-.5-.5s.224-.5.5-.5h1c.276 0 .5.224.5.5S73.776 23 73.5 23zM77.5 23h-2c-.276 0-.5-.224-.5-.5s.224-.5.5-.5h2c.276 0 .5.224.5.5S77.776 23 77.5 23zM70.5 23h-10c-.276 0-.5-.224-.5-.5s.224-.5.5-.5h10c.276 0 .5.224.5.5S70.776 23 70.5 23zM73.5 21h-5c-.276 0-.5-.224-.5-.5s.224-.5.5-.5h5c.276 0 .5.224.5.5S73.776 21 73.5 21zM75.5 19h-10c-.276 0-.5-.224-.5-.5s.224-.5.5-.5h10c.276 0 .5.224.5.5S75.776 19 75.5 19z"/><g><path fill="#fff" d="M19.5 45h-1c-.276 0-.5-.224-.5-.5s.224-.5.5-.5h1c.276 0 .5.224.5.5S19.776 45 19.5 45zM19.5 47h-5c-.276 0-.5-.224-.5-.5s.224-.5.5-.5h5c.276 0 .5.224.5.5S19.776 47 19.5 47zM24.5 49h-3c-.276 0-.5-.224-.5-.5s.224-.5.5-.5h3c.276 0 .5.224.5.5S24.776 49 24.5 49zM25.5 51h-10c-.276 0-.5-.224-.5-.5s.224-.5.5-.5h10c.276 0 .5.224.5.5S25.776 51 25.5 51zM19.5 49h-1c-.276 0-.5-.224-.5-.5s.224-.5.5-.5h1c.276 0 .5.224.5.5S19.776 49 19.5 49zM10.5 51h-2C8.224 51 8 50.776 8 50.5S8.224 50 8.5 50h2c.276 0 .5.224.5.5S10.776 51 10.5 51zM16.5 53h-2c-.276 0-.5-.224-.5-.5s.224-.5.5-.5h2c.276 0 .5.224.5.5S16.776 53 16.5 53zM16.5 49h-9C7.224 49 7 48.776 7 48.5S7.224 48 7.5 48h9c.276 0 .5.224.5.5S16.776 49 16.5 49zM13.5 51h-1c-.276 0-.5-.224-.5-.5s.224-.5.5-.5h1c.276 0 .5.224.5.5S13.776 51 13.5 51z"/></g><g><path fill="#fdfcef" d="M54.374,57.547c0.078-0.351,0.126-0.672,0.126-1.047c0-2.761-2.239-5-5-5 c-1.656,0-3.113,0.815-4.022,2.055C45.25,50.726,42.887,48.5,40,48.5c-3.038,0-5.5,2.462-5.5,5.5c0,0.386,0.047,0.759,0.124,1.122 C34.007,54.733,33.283,54.5,32.5,54.5c-1.898,0-3.479,1.325-3.889,3.098C28.256,57.542,27.887,57.5,27.5,57.5c-2.761,0-5,2.239-5,5 s2.239,5,5,5s11,0,11,0h4c0,0,8.239,0,11,0s5-2.239,5-5C58.5,60.038,56.717,57.962,54.374,57.547z"/><path fill="#472b29" d="M53.5,68h-26c-3.033,0-5.5-2.467-5.5-5.5s2.467-5.5,5.5-5.5c0.24,0,0.484,0.014,0.75,0.044 C28.864,55.23,30.552,54,32.5,54c0.514,0,1.022,0.091,1.506,0.266C34.002,54.177,34,54.088,34,54c0-3.309,2.691-6,6-6 c2.737,0,5.103,1.885,5.792,4.452C46.798,51.52,48.103,51,49.5,51c3.033,0,5.5,2.467,5.5,5.5c0,0.223-0.015,0.437-0.047,0.665 C57.326,57.813,59,59.981,59,62.5C59,65.533,56.533,68,53.5,68z M27.5,58c-2.481,0-4.5,2.019-4.5,4.5s2.019,4.5,4.5,4.5h26 c2.481,0,4.5-2.019,4.5-4.5c0-2.204-1.562-4.08-3.714-4.461c-0.134-0.023-0.253-0.101-0.329-0.215 c-0.076-0.113-0.102-0.253-0.072-0.386C53.967,57.073,54,56.801,54,56.5c0-2.481-2.019-4.5-4.5-4.5 c-1.437,0-2.756,0.674-3.619,1.851c-0.124,0.169-0.338,0.243-0.54,0.185c-0.201-0.057-0.345-0.233-0.362-0.441 C44.772,51.018,42.585,49,40,49c-2.757,0-5,2.243-5,5c0,0.327,0.037,0.66,0.113,1.019c0.042,0.197-0.039,0.399-0.204,0.514 c-0.164,0.115-0.383,0.121-0.552,0.013C33.792,55.188,33.149,55,32.5,55c-1.634,0-3.033,1.115-3.402,2.711 c-0.059,0.256-0.304,0.426-0.567,0.381C28.14,58.029,27.812,58,27.5,58z"/><path fill="#472b29" d="M28.25 63C28.112 63 28 62.888 28 62.75c0-1.517 1.233-2.75 2.75-2.75.129 0 .259.011.398.034C31.536 58.825 32.65 58 33.937 58c.479 0 .944.115 1.363.335C35.872 56.926 37.221 56 38.75 56c.138 0 .25.112.25.25s-.112.25-.25.25c-1.414 0-2.65.917-3.078 2.28-.024.075-.082.135-.156.161-.075.026-.157.016-.223-.028-.402-.271-.871-.413-1.356-.413-1.135 0-2.109.774-2.368 1.883-.015.065-.056.122-.113.156-.056.036-.125.046-.19.03-.193-.047-.358-.069-.517-.069-1.241 0-2.25 1.009-2.25 2.25C28.5 62.888 28.388 63 28.25 63zM51.25 60C51.112 60 51 59.888 51 59.75c0-1.241 1.29-2.25 2.875-2.25.367 0 .799.085 1.081.165.133.038.21.176.173.309s-.177.209-.309.173C54.582 58.079 54.191 58 53.875 58c-1.31 0-2.375.785-2.375 1.75C51.5 59.888 51.388 60 51.25 60z"/></g><g><path fill="#fdfcef" d="M79.5,76.5H84c1.933,0,3.5-1.567,3.5-3.5c0-1.814-1.385-3.288-3.152-3.465 C84.437,69.203,84.5,68.86,84.5,68.5c0-2.209-1.791-4-4-4c-1.266,0-2.382,0.6-3.115,1.518C76.936,64.007,75.147,62.5,73,62.5 c-2.485,0-4.5,2.015-4.5,4.5c0,0.104,0.024,0.202,0.031,0.304C67.996,66.809,67.286,66.5,66.5,66.5c-1.657,0-3,1.343-3,3 c0,0.127,0.022,0.247,0.037,0.37C63.072,69.641,62.554,69.5,62,69.5c-1.933,0-3.5,1.567-3.5,3.5s1.567,3.5,3.5,3.5s9.5,0,9.5,0V77 h8V76.5z"/><path fill="#472b29" d="M84,77h-4.5c-0.276,0-0.5-0.224-0.5-0.5s0.224-0.5,0.5-0.5H84c1.654,0,3-1.346,3-3 c0-1.538-1.162-2.813-2.702-2.967c-0.146-0.015-0.278-0.093-0.362-0.213c-0.083-0.121-0.109-0.272-0.071-0.414 C83.957,69.063,84,68.775,84,68.5c0-1.93-1.57-3.5-3.5-3.5c-1.057,0-2.049,0.485-2.724,1.331c-0.12,0.15-0.315,0.217-0.503,0.175 c-0.188-0.043-0.333-0.19-0.375-0.378C76.487,64.286,74.884,63,73,63c-2.206,0-4,1.794-4,4c0,0.037,0.006,0.073,0.012,0.109 c0.007,0.053,0.014,0.107,0.018,0.162c0.014,0.204-0.099,0.396-0.283,0.484c-0.185,0.088-0.405,0.056-0.555-0.084 C67.723,67.238,67.123,67,66.5,67c-1.378,0-2.5,1.122-2.5,2.5c0,0.075,0.012,0.146,0.021,0.219 c0.026,0.183-0.046,0.407-0.197,0.516c-0.149,0.108-0.34,0.166-0.508,0.084C62.888,70.107,62.444,70,62,70c-1.654,0-3,1.346-3,3 s1.346,3,3,3h9.5c0.276,0,0.5,0.224,0.5,0.5S71.776,77,71.5,77H62c-2.206,0-4-1.794-4-4s1.794-4,4-4 c0.343,0,0.684,0.046,1.019,0.139C63.2,67.378,64.692,66,66.5,66c0.538,0,1.063,0.126,1.541,0.363C68.354,63.906,70.458,62,73,62 c2.058,0,3.847,1.227,4.609,3.071C78.416,64.382,79.432,64,80.5,64c2.481,0,4.5,2.019,4.5,4.5c0,0.206-0.017,0.413-0.053,0.631 C86.722,69.558,88,71.134,88,73C88,75.206,86.206,77,84,77z"/><path fill="#472b29" d="M73.5 76A.5.5 0 1 0 73.5 77 .5.5 0 1 0 73.5 76zM76.5 77h-1c-.276 0-.5-.224-.5-.5s.224-.5.5-.5h1c.276 0 .5.224.5.5S76.776 77 76.5 77zM81.25 72C81.112 72 81 71.888 81 71.75c0-1.252 1.341-2.232 3.053-2.232.135 0 .713.039 1.037.163.129.049.193.194.144.323-.049.129-.194.194-.323.144-.22-.084-.707-.129-.858-.129-1.408 0-2.553.777-2.553 1.732C81.5 71.888 81.388 72 81.25 72z"/></g><g><path fill="#b2876b" d="M68.035,65.244c-0.682-0.45-1.458-0.805-2.285-1.029l-6.255-2.235 c-0.597-0.213-0.995-0.779-0.995-1.413V57.5h-11v2.96c0,0.626-0.388,1.185-0.974,1.405l-6.276,2.35 c-0.827,0.225-1.603,0.58-2.285,1.029c-2.858,1.928-3.465,4.837-3.465,6.035V72c0,0.276,0.224,0.5,0.5,0.5h36 c0.276,0,0.5-0.223,0.5-0.5l0-0.721C71.5,70.082,70.893,67.172,68.035,65.244z"/><path fill="#d8ad8f" d="M65.586,40.627L65.5,40.5v-4.105c0-7.11-5.607-12.895-12.5-12.895s-12.5,5.785-12.5,12.895V40.5 l-0.086,0.127c-0.195,0.287-0.462,0.68-0.535,0.782c-0.299,0.405-0.573,1.119-0.209,2.259c0.369,1.618,0.778,3.38,0.879,3.709 c0.185,0.59,0.365,0.985,0.738,1.248l0.213,0.15l-0.002,0.585c-0.001,0.251-0.002,0.436,0.002,0.884 c0,0.439,0.098,1.157,0.375,1.754c1.934,4.175,8.968,7.5,11.125,7.5s9.191-3.326,11.125-7.5c0.277-0.598,0.375-1.314,0.375-1.746 c0.004-0.458,0.003-0.642,0.002-0.893L64.5,48.776l0.213-0.15c0.412-0.291,0.585-0.759,0.74-1.253 c0.136-0.445,0.825-3.48,0.853-3.613c0.386-1.222,0.115-1.943-0.178-2.341C66.039,41.292,65.737,40.849,65.586,40.627z"/><path fill="#85cfcc" d="M68.035,65.244c-0.682-0.45-1.458-0.805-2.285-1.029l-5.219-1.809 c-0.306,0.738-1.43,1.381-3.032,1.806l-0.307-0.157c-0.393,0.092-1.485,0.267-1.526,0.273L55.5,64.593c0,0-1.664,0.157-2.563,0.157 c-3.822,0-6.984-0.999-7.578-2.306l-5.11,1.771c-0.827,0.225-1.603,0.58-2.285,1.029c-2.858,1.928-3.465,4.837-3.465,6.035 c0,0.916,0,1.221,0,1.221h37c0,0,0-0.305,0-1.221C71.5,70.082,70.893,67.172,68.035,65.244z"/><path fill="#472b29" d="M71,73H35c-0.551,0-1-0.448-1-1v-0.721c0-1.47,0.754-4.404,3.531-6.359 c0.006-0.005,0.014-0.01,0.021-0.015c0.018-0.012,0.036-0.024,0.054-0.037c0.08-0.055,0.162-0.11,0.246-0.163 c0.019-0.013,0.039-0.023,0.06-0.033c0.664-0.404,1.418-0.726,2.208-0.94l6.232-2.336C46.739,61.251,47,60.875,47,60.46V57.5h1 v2.96c0,0.83-0.522,1.583-1.299,1.873l-6.276,2.351c-0.8,0.219-1.524,0.537-2.142,0.936l-0.148,0.099 C35.668,67.437,35,70,35,71.279V72l36,0v-0.721c0-1.278-0.668-3.842-3.135-5.561l-0.149-0.099 c-0.617-0.398-1.338-0.715-2.097-0.921l-6.292-2.247C58.534,62.168,58,61.412,58,60.568V57.5h1v3.068 c0,0.422,0.267,0.8,0.664,0.941l6.255,2.235c0.757,0.204,1.507,0.524,2.17,0.928c0.02,0.009,0.04,0.02,0.059,0.033 c0.083,0.053,0.166,0.108,0.246,0.163c0.018,0.012,0.036,0.024,0.054,0.037c0.007,0.005,0.014,0.01,0.021,0.015 C71.246,66.875,72,69.809,72,71.279L72,72C72,72.551,71.551,73,71,73z"/><path fill="#472b29" d="M57.25 64.548c-.114 0-.217-.078-.244-.193-.031-.134.052-.269.187-.3 1.68-.392 2.843-1 3.191-1.67.063-.123.217-.168.337-.106.123.063.17.214.106.337-.422.811-1.672 1.495-3.521 1.927C57.288 64.546 57.269 64.548 57.25 64.548zM53 65c-3.887 0-7.109-.981-7.838-2.385-.063-.123-.016-.273.107-.337.123-.063.273-.016.337.107C46.231 63.591 49.41 64.5 53 64.5c.922 0 1.836-.061 2.716-.179.14-.024.263.077.281.214.019.137-.077.263-.214.281C54.881 64.938 53.945 65 53 65zM71.625 72.625c-.041 0-.081-.02-.105-.057l-5.25-8.125c-.038-.058-.021-.135.037-.173.059-.038.136-.021.173.037l5.25 8.125c.038.058.021.135-.037.173C71.672 72.619 71.648 72.625 71.625 72.625zM69.925 72.625c-.041 0-.081-.02-.105-.057l-5.686-8.799c-.038-.058-.021-.135.037-.173.058-.037.136-.021.173.037l5.686 8.799c.038.058.021.135-.037.173C69.972 72.619 69.948 72.625 69.925 72.625zM68.225 72.625c-.041 0-.081-.02-.105-.057l-4.766-7.375c-.038-.058-.021-.135.037-.173.058-.037.136-.021.173.037l4.766 7.375c.038.058.021.135-.037.173C68.272 72.619 68.249 72.625 68.225 72.625zM66.525 72.625c-.041 0-.081-.02-.105-.057l-4.119-6.375c-.038-.058-.021-.135.037-.173.059-.037.136-.021.173.037l4.119 6.375c.038.058.021.135-.037.173C66.572 72.619 66.548 72.625 66.525 72.625zM64.825 72.625c-.041 0-.081-.02-.105-.057l-2.7-4.179c-.038-.058-.021-.135.037-.173.059-.037.136-.021.173.037l2.7 4.179c.038.058.021.135-.037.173C64.872 72.619 64.849 72.625 64.825 72.625zM63.125 72.625c-.041 0-.081-.02-.105-.057l-1-1.548c-.038-.058-.021-.135.037-.173.059-.036.136-.021.173.037l1 1.548c.038.058.021.135-.037.173C63.172 72.619 63.148 72.625 63.125 72.625zM53 60c-2.312 0-9.532-3.372-11.579-7.79C41.111 51.54 41 50.758 41 50.25c-.004-.453-.003-.638-.002-.891l.001-.325c-.534-.376-.753-.949-.928-1.51-.149-.487-.848-3.573-.877-3.704-.426-1.334-.085-2.21.278-2.702.078-.109.378-.552.529-.773v-3.952C40 29.009 45.832 23 53 23s13 6.009 13 13.395v3.952c.149.22.447.658.531.776.362.493.701 1.367.264 2.739-.019.09-.717 3.176-.865 3.66-.176.564-.395 1.137-.929 1.513l.001.325c.001.252.002.438-.002.896 0 .503-.111 1.285-.421 1.956C62.532 56.628 55.312 60 53 60zM53 24c-6.617 0-12 5.56-12 12.395V40.5c0 .1-.03.198-.086.281 0 0-.522.769-.633.925-.23.312-.433.879-.123 1.853.211.924.754 3.297.868 3.669.206.659.374.92.689 1.07C41.889 48.382 42 48.557 42 48.75l-.002.615c-.001.248-.002.43.002.88 0 .388.086 1.021.329 1.544C44.187 55.803 50.934 59 53 59s8.812-3.197 10.671-7.21C63.914 51.267 64 50.633 64 50.25c.004-.455.003-.637.002-.885L64 48.75c0-.193.111-.368.285-.451.316-.15.483-.411.69-1.073.113-.369.656-2.743.856-3.625.321-1.015.118-1.583-.107-1.887-.001-.002-.003-.004-.005-.007-.111-.156-.633-.925-.633-.925C65.03 40.698 65 40.6 65 40.5v-4.105C65 29.56 59.617 24 53 24z"/></g></svg>