<svg xmlns="http://www.w3.org/2000/svg" viewBox="0 0 30 30">
  <path d="M6 4C4.895 4 4 4.895 4 6L4 24C4 25.105 4.895 26 6 26L24 26C25.105 26 26 25.105 26 24L26 6C26 4.895 25.105 4 24 4L6 4 z M 14 8C17.309 8 20 10.691 20 14C20 15.294 19.583766 16.489703 18.884766 17.470703L21.707031 20.292969C22.098031 20.683969 22.098031 21.316031 21.707031 21.707031C21.512031 21.902031 21.256 22 21 22C20.744 22 20.487969 21.902031 20.292969 21.707031L17.470703 18.884766C16.489703 19.583766 15.294 20 14 20C10.691 20 8 17.309 8 14C8 10.691 10.691 8 14 8 z M 14 10 A 4 4 0 0 0 10 14 A 4 4 0 0 0 14 18 A 4 4 0 0 0 18 14 A 4 4 0 0 0 14 10 z" fill="#340100" />
</svg>