<svg xmlns="http://www.w3.org/2000/svg" viewBox="0 0 529.71 266.6"><defs><style>.cls-1{fill:orange;}.cls-2{fill:#3f0003;}</style></defs><g id="Layer_2" data-name="Layer 2"><g id="Layer_1-2" data-name="Layer 1"><path class="cls-1" d="M135.75,170.46l-.52,1.29-.21-.58-.11.43-29.56,73.89q-.85-4.17-5.27-15.8L23.66,33Q18,18.35,13.39,13.18T0,6.25V0H92.69V6.25Q80.38,9,80.38,17.77q0,4.5,3.13,12.89Z"/><path class="cls-1" d="M529.71,259.19v6.41H444.87v-6.41q12.51-4.26,12.5-17.32,0-3.31-4.3-16.37L411.83,94.7h0l.08-2.09,33.15-69.5q0,5.22,3.32,15.43L487.81,162.6l.1,1,.81,2,28.36,82.54a17.62,17.62,0,0,0,.84,2.45l.05.14h0Q521,257.31,529.71,259.19Z"/><path class="cls-2" d="M457.76.85V7.49Q446.24,12,445.17,22h0L411.91,92.6l-.11.91-.35.9-.54-1.81-53,137c-1.2,3.1-2.21,5.87-3,8.29q-.17.53-.33,1c-.72,2.2-1.25,4.09-1.61,5.68-.12.58-.23,1.11-.31,1.6,0,.08,0,.17,0,.25-.08.5-.13,1-.16,1.38,0,.22,0,.42,0,.62q0,9.57,13.87,11.91v6.25h-86v-6.25Q294,258.21,294,247.26q0-3.7-6.06-17.57L229.08,78.74l-.5,1.27-.5-1.27-61,154.07q-5.28,11.72-5.28,14.84,0,9,14.46,12.7v6.25H91.46v-6.25q13.1-2.53,13.1-13.28c0-.09,0-.19,0-.3l.36-.17,30-75L135,171l.27.73L192.32,29.88Q196,20.7,196,17.77q0-9-13.08-11.52V0h95.89V6.25q-13.29,3.51-13.29,12.69,0,3.14,3.32,11.72L323.3,171.75l.5-1.31.5,1.31L376.85,33Q381,22.66,381,17.58,381,9,366.89,6.25V0h90.68V.85Z"/></g></g></svg>