<svg xmlns="http://www.w3.org/2000/svg" xmlns:xlink="http://www.w3.org/1999/xlink" viewBox="0 0 1038 768"><defs><style>.cls-1{fill:url(#radial-gradient);}.cls-2{opacity:0.29;fill:url(#linear-gradient);}</style><radialGradient id="radial-gradient" cx="519" cy="384" r="456.52" gradientUnits="userSpaceOnUse"><stop offset="0" stop-color="#681111"/><stop offset="0.52" stop-color="#4c0d0d"/><stop offset="1" stop-color="#3d0302"/></radialGradient><linearGradient id="linear-gradient" y1="384" x2="1038" y2="384" gradientUnits="userSpaceOnUse"><stop offset="0" stop-color="orange"/><stop offset="0.33" stop-color="#fdba00"/><stop offset="0.68" stop-color="#ffcb4a"/><stop offset="1" stop-color="#ffcb4a"/></linearGradient></defs><g id="Layer_2" data-name="Layer 2"><g id="Layer_2-2" data-name="Layer 2"><path class="cls-1" d="M709.5,0H342.22C306.67,11.28,257.14,96.71,208,109,152,123,55,106,27.75,0H0V768H1038V281C742,310,799,0,709.5,0Z"/><path class="cls-2" d="M0,0V211c81.19,0,147,66,147,147.5S81.19,506,0,506V768H1038V0ZM833,495c-81.19,0-147-66-147-147.5S751.81,200,833,200s147,66,147,147.5S914.19,495,833,495Z"/></g></g></svg>