<svg xmlns="http://www.w3.org/2000/svg" xmlns:xlink="http://www.w3.org/1999/xlink" viewBox="0 0 1366.01 768"><defs><style>.cls-1{fill:url(#linear-gradient);}.cls-2{fill:url(#linear-gradient-2);}.cls-3{fill:url(#linear-gradient-3);}.cls-4{fill:url(#linear-gradient-4);}.cls-5{fill:url(#linear-gradient-5);}.cls-6{fill:none;}.cls-7{fill:url(#linear-gradient-6);}.cls-8{fill:url(#linear-gradient-7);}.cls-9{fill:url(#linear-gradient-8);}.cls-10,.cls-11{opacity:0.49;}.cls-10{fill:url(#linear-gradient-9);}.cls-11{fill:url(#linear-gradient-10);}</style><linearGradient id="linear-gradient" x1="1339.57" y1="377.49" x2="26.41" y2="390.52" gradientUnits="userSpaceOnUse"><stop offset="0.03" stop-color="#2f97fb"/><stop offset="0.3" stop-color="#5badfd"/><stop offset="0.7" stop-color="#a9d5ff"/></linearGradient><linearGradient id="linear-gradient-2" x1="360.5" y1="627.14" x2="97.51" y2="486.86" gradientUnits="userSpaceOnUse"><stop offset="0.03" stop-color="#2f97fb"/><stop offset="0.3" stop-color="#5badfd"/><stop offset="0.7" stop-color="#a9d5ff"/><stop offset="0.97" stop-color="#e5f2fd"/></linearGradient><linearGradient id="linear-gradient-3" x1="852.19" y1="687.07" x2="653.67" y2="581.18" xlink:href="#linear-gradient-2"/><linearGradient id="linear-gradient-4" x1="1149.4" y1="44.36" x2="930.47" y2="44.36" xlink:href="#linear-gradient-2"/><linearGradient id="linear-gradient-5" x1="1166.94" y1="724.92" x2="969.22" y2="644.43" xlink:href="#linear-gradient-2"/><linearGradient id="linear-gradient-6" x1="847.19" y1="339.04" x2="610.82" y2="212.97" xlink:href="#linear-gradient-2"/><linearGradient id="linear-gradient-7" x1="259.66" y1="162.17" x2="216.57" y2="-65.19" gradientTransform="translate(-73.44 149.12) rotate(-44.84)" xlink:href="#linear-gradient-2"/><linearGradient id="linear-gradient-8" x1="-245.6" y1="697.1" x2="-288.7" y2="469.74" gradientTransform="translate(-73.07 151.22) rotate(-44.98)" xlink:href="#linear-gradient-2"/><linearGradient id="linear-gradient-9" x1="1366.53" y1="707.25" x2="1158.36" y2="709.32" xlink:href="#linear-gradient"/><linearGradient id="linear-gradient-10" x1="1362.34" y1="103.28" x2="1158.29" y2="105.3" xlink:href="#linear-gradient"/></defs><g id="Layer_2" data-name="Layer 2"><g id="Layer_1-2" data-name="Layer 1"><rect class="cls-1" x="0.01" width="1366" height="768"/><path class="cls-2" d="M229,508a49,49,0,1,1-49,49,49.05,49.05,0,0,1,49-49m0-100A149,149,0,1,0,378,557,149,149,0,0,0,229,408Z"/><path class="cls-3" d="M866,631.5c0,65.29-52.83,118.22-118,118.22S630,696.79,630,631.5q0-3.15.16-6.27c2.8,56.56,51.11,101.59,110.3,101.59,61,0,110.43-47.81,110.43-106.77,0-57.75-47.42-104.79-106.67-106.7,1.26-.05,2.52-.07,3.78-.07C813.18,513.28,866,566.21,866,631.5Z"/><path class="cls-4" d="M1149.4,0a117.56,117.56,0,0,1-54.07,72.21c-56,33.25-128.49,14.68-161.8-41.47-1.08-1.81-2.09-3.65-3.06-5.49,31.25,47.22,95.78,61.3,146.69,31.1A112.28,112.28,0,0,0,1125,0Z"/><path class="cls-5" d="M1149.4,768H1125c11.31-29.47,9.72-63.13-7.29-91.81-29.46-49.67-94.24-65.93-146.17-37.36,1-.67,2.13-1.33,3.21-2,56-33.24,128.49-14.67,161.8,41.48A118,118,0,0,1,1149.4,768Z"/><line class="cls-6" x1="1152.01" y1="768" x2="1149.4" y2="768"/><line class="cls-6" x1="1124.96" y1="768" x2="1122.01" y2="768"/><rect class="cls-7" x="630.01" y="177" width="198" height="198" transform="translate(487.2 -465.05) rotate(51.19)"/><polygon class="cls-8" points="280.01 0.77 139.62 140.39 0 0 280.01 0.77"/><polygon class="cls-9" points="280.01 768 0 767.92 140.05 627.95 280.01 768"/><path class="cls-10" d="M1366,654.1V768H1159A165.17,165.17,0,0,1,1366,654.1Z"/><path class="cls-11" d="M1366,0V201.9A165.11,165.11,0,0,1,1159,0Z"/></g></g></svg>