<svg id="book_lover" xmlns="http://www.w3.org/2000/svg" width="669.289" height="511.679" viewBox="0 0 669.289 511.679">
  <path id="Path_123" data-name="Path 123" d="M621.254,441l-1.15-25.72a83,83,0,0,0-38.74-9.8c18.61,15.21,16.28,44.54,28.9,65a50,50,0,0,0,36.64,23.09l15.57,9.53a83.7,83.7,0,0,0-17.65-67.84,80.76,80.76,0,0,0-14.86-13.81C626.234,431.32,621.254,441,621.254,441Z" transform="translate(-575.862 0.05)" fill="#f2f2f2"/>
  <path id="Path_124" data-name="Path 124" d="M509.37,509.54c7.93-.56,10,1,22,0h22l-2.86-52.65-34.64,13.88L343.76,475l.1.29c.08.22,7.72,22.58,1.75,31l-.25.35h.48l157.89,1.49C505.45,508.15,507.66,509.66,509.37,509.54Z" transform="translate(-227.838 0.05)" fill="#f2f2f2"/>
  <path id="Path_125" data-name="Path 125" d="M500.112,510.23c15.32-1.09,31.19,4.87,44.43-1.86l10.58.64v-.09c.09-.24,5.09-39.58-5-54.83l-.45-.68-.34,3.62,3.33,49-7.39-2.46c-17.93,8.44-39.27,2.87-59.8,2.79l-139.67-.52c-2.93,0-5.37,2-5.44,4.46v.24h151.31Q495.912,510.53,500.112,510.23Z" transform="translate(-227.511 0.05)" fill="#ccc"/>
  <path id="Path_126" data-name="Path 126" d="M349.17,485.62l157.23-3.13.16-.06,37.15-13.92-.7-1.87L506.02,480.5l-156.89,3.12Z" transform="translate(-223.548 0.05)" fill="#e6e6e6"/>
  <path id="Path_127" data-name="Path 127" d="M348.33,494.04l157.23-3.13.16-.06,37.15-13.92-.71-1.87-36.98,13.86-156.89,3.12Z" transform="translate(-221.868 0.05)" fill="#e6e6e6"/>
  <path id="Path_128" data-name="Path 128" d="M347.49,502.45l157.23-3.12.16-.06,37.15-13.92-.71-1.88-36.98,13.87-156.89,3.11Z" transform="translate(-220.188 0.05)" fill="#e6e6e6"/>
  <path id="Path_129" data-name="Path 129" d="M502.37,475.54a105.14,105.14,0,0,0,41.77-11.77L555,458l-.29-2.86a1.73,1.73,0,0,0-1.84-1.4h-1L405.24,455.9a86,86,0,0,0-28.1,5.1l-32,11.6v.17c.27,2.69,3,4.77,6.18,4.73l144.43-1.69Q499.14,475.78,502.37,475.54Z" transform="translate(-230.848 0.05)" fill="#e6e6e6"/>
  <path id="Path_130" data-name="Path 130" d="M346.97,473.22H347l175.84-4.03.12-.06,31.7-14.68-.32-.49-.96.01-30.84,14.29-174.2,3.99-1.4.03Z" transform="translate(-232.308 0.05)" fill="#ccc"/>
  <path id="Path_131" data-name="Path 131" d="M382.2,455h2.23l50.39-.75h2.39c-11.52,12.26-37,15.32-74.29,10.58Z" transform="translate(-130.838 0.05)" fill="#a89069"/>
  <path id="Path_132" data-name="Path 132" d="M509.49,161.81l-3.08,7.16,5.03,25.39,51.25-7.13-.41-30.96-1.03-6.78Z" transform="translate(-399.808 0.05)" fill="#ffb6b6"/>
  <path id="Path_133" data-name="Path 133" d="M569.4,490.94h11.3l5.39-43.61H569.4Z" transform="translate(-486.198 0.05)" fill="#ffb6b6"/>
  <path id="Path_134" data-name="Path 134" d="M592.06,505.7a4.84,4.84,0,0,1-4.83,4.84H565.72l-3.71-7.66-1.44,7.66h-8.11l2.28-27.35,3.69-.21,12.38-.74,2-.12v7.74l17.17,11.86a4.87,4.87,0,0,1,2.08,3.98Z" transform="translate(-475.228 0.05)" fill="#340100"/>
  <path id="Path_135" data-name="Path 135" d="M466.9,440.94h11.31l6.65-64.21-21.24-1.27Z" transform="translate(-279.188 0.05)" fill="#ffb6b6"/>
  <path id="Path_136" data-name="Path 136" d="M487.54,455.7a4.84,4.84,0,0,1-4.83,4.84H461.2l-3.71-7.66-1.44,7.66h-8.11l2.28-27.35,3.26-.19,12.6-.76,2.17-.12v7.74l17.23,11.86a4.85,4.85,0,0,1,2.06,3.98Z" transform="translate(-266.188 0.05)" fill="#340100"/>
  <path id="Path_137" data-name="Path 137" d="M458.593,453.33h0l2.17-70.92a18.56,18.56,0,0,1,.25-17.52l.31-.57-.81-3.74a23.89,23.89,0,0,1,1.36-14.34l2-66.16c-7.25-47,27.3-77.61,27.3-77.61l-3.18-24.62,55.87,1.27-.95,23.35,11.11,38.17c5.85,57,45.2,92.76,39.22,147.23a1,1,0,0,0,.06.46,13.9,13.9,0,0,1-1.12,11.22,4.45,4.45,0,0,0-.51,1.4c-1.23,9.55-1.39-2.53-3,6.93l.32.16c1.14.4,1.63,2,1.09,3.54s-1.9,2.51-3,2.11l-29.87.32c-1.14-.39-1.64-2-1.1-3.54s1.91-2.5,3.05-2.11l1.86.94-3.11-10.17-1.09-1a4.73,4.73,0,0,1-.23-6.69,4.662,4.662,0,0,1,.83-.71h0l-3.09-16.53.43-12.5-.9-14.18-39.19-56.78-15.86,78.44-16.19,85a3,3,0,0,1,.93,2.75,3.09,3.09,0,0,1-3.07,2.44h-22a3.021,3.021,0,1,1,.11-6.04Z" transform="translate(-380.191 0.05)" fill="#340100"/>
  <path id="Path_138" data-name="Path 138" d="M516.02,41.14A27.66,27.66,0,1,0,563.6,22l-.14-.13c-.22-.23-.44-.46-.67-.68h0a5.918,5.918,0,0,1-.88-.78c-3.73-5.22-8-9.59-18.22-6.86C528.91,17.41,516.02,25.86,516.02,41.14Z" transform="translate(-418.068 0.05)" fill="#2f2e41"/>
  <path id="Path_139" data-name="Path 139" d="M513.091,29.3a10.13,10.13,0,0,1-9.7,10.55,9.65,9.65,0,0,1-1.78-.08l-71.34,58.55-10.89-19.16,73.54-51.52a10.19,10.19,0,0,1,20.17,1.66Z" transform="translate(-263.189 0.05)" fill="#ffb6b6"/>
  <path id="Path_140" data-name="Path 140" d="M470.72,115.58s0-2.11,11.36-2c14.08.1,52.85-20.11,49.46-39.14a8,8,0,0,0,9.51-2.3L522.15,54c-5.92.4-6,4.37-5.47,6.64l-15.17,6L462,89.34l7,22.8Z" transform="translate(-333.758 0.05)" fill="orange"/>
  <circle id="Ellipse_6" data-name="Ellipse 6" cx="23.2" cy="23.2" r="23.2" transform="translate(109.222 24.39)" fill="#ffb7b7"/>
  <path id="Path_141" data-name="Path 141" d="M570.692,162.91a9.31,9.31,0,0,1-.45,11.73c0,.68-.11,1.34-1.08,3.77a3.374,3.374,0,0,1-.44.67,1.3,1.3,0,0,1-.1.15,7.77,7.77,0,0,1-4,2.71l-42.46,11.85-5.61,1.57-1,.27-.54-7.67a6.86,6.86,0,0,1-1.51-8.81l.78-1.29-4.59-12.26-.44-1.21-11.56-31.29v-4.25l-.11-15a30.67,30.67,0,0,1,12.13-24.47,30.18,30.18,0,0,1,11.63-5.45h.09l4.59-6.18,18.63,1.86,1.55,3.16,1.87,3.81,13.51,8,4.61,10.73,3.12,7.26c4.83,3.47,7.71,7.93,8.54,13.24,1.77,11.27-6.13,22.55-7.07,23.84l-.23,12.94Z" transform="translate(-406.4 0.05)" fill="orange"/>
  <path id="Path_142" data-name="Path 142" d="M509.1,53.62l.63-.11c3.62-.64,7.24-1.27,10.84-1.92l.34-8.18,4.33,7.32c10,3.27,19.33,1.44,28.11-2.73a79.943,79.943,0,0,0,8.41-4.63c.89-13.83-4.7-22.68-15.11-21.75-.38,0-.65-.36-1-.52h0c-.57-.26-1.14-.52-1.72-.75a25.56,25.56,0,0,0-26.82,5.2C510.04,32.33,506.85,43.5,509.1,53.62Z" transform="translate(-400.948 0.05)" fill="#2f2e41"/>
  <path id="Path_143" data-name="Path 143" d="M523.59,53.51s6.87-25.65,36.32-31.57a1.769,1.769,0,0,0,.29-.12l.31-.16c-.33-.19-.65-.36-1-.52h0c-.29-.26-.58-.53-.88-.78h-.84S528.25,15.69,523.59,53.51Z" transform="translate(-414.808 0.05)" fill="#fd6584"/>
  <path id="Path_144" data-name="Path 144" d="M557.944,215.19a3.91,3.91,0,0,0,4,.65,9.311,9.311,0,0,0,3.44-2.51,32.34,32.34,0,0,0,7.91-14.27l-1.27-2.27a12.42,12.42,0,0,0-7.48-13.67,7.67,7.67,0,0,0-4.73-.41,4.46,4.46,0,0,0-3.25,3.22c-.49,2.42,1.53,4.61,3.57,6a25.44,25.44,0,0,0,12,4.28,41.131,41.131,0,0,0-13.35,11.9,9.819,9.819,0,0,0-1.76,3.45,3.94,3.94,0,0,0,.92,3.63Z" transform="translate(-460.492 0.05)" fill="orange"/>
  <path id="be339808-9edc-488a-82d9-9b8c80f783b0-2146" d="M667.93,511.36H278.65a1.25,1.25,0,1,1,0-2.49H667.93a1.25,1.25,0,1,1,0,2.49Z" transform="translate(-277.288 0.05)" fill="#ccc"/>
  <path id="Path_145" data-name="Path 145" d="M340.591,190.77v.65c1.4-1.64,2.83-3.27,4.25-4.9l1.78-2q3.78-4.29,7.61-8.55t7.72-8.49c.62-.68,1.24-1.36,1.88-2a15.591,15.591,0,0,1,1.66-1.59,6.231,6.231,0,0,1,2-1.11,5,5,0,0,1,2.61,0c1,.22,1.91.58,2.86.88l2.92.94,5.85,1.92a.19.19,0,0,0,.25-.11h0a.18.18,0,0,0-.1-.25h0l-1.47-.46-5.89-1.93-2.93-.95a8.9,8.9,0,0,0-2.84-.56,6.4,6.4,0,0,0-4.16,1.95c-.61.57-1.16,1.16-1.72,1.77l-2,2.13q-3.93,4.29-7.8,8.61t-7.71,8.68c-.18.21-.37.42-.55.64C343.381,187.51,341.971,189.14,340.591,190.77Z" transform="translate(-53.299 0.05)" fill="#fff"/>
  <path id="Path_146" data-name="Path 146" d="M375.5,166.42a4.9,4.9,0,0,1,2.06-1.53h.81a85.17,85.17,0,0,1-24.33,24.76Z" transform="translate(-63.118 0.05)" fill="#fff"/>
  <path id="Path_147" data-name="Path 147" d="M.27,268.65,32.36,96.85a12.71,12.71,0,0,1,12.08-10.3h.78l21.89.78,2.35.09,10.91.39,2.35.08,7,.25,141.49,5.08a4.562,4.562,0,0,0,.64,0l31.71-.66,11.74-.25h.37l8.66-.19,75.47-1.56,20-.42,9.87-.21h2.36l11.25-.23h2.36l11.47-.33,2.36-.05,12.64-.26h2l11.28-.23h2.04a12.69,12.69,0,0,1,12.46,10.6l29.05,178.2a12.61,12.61,0,0,1-10.42,14.49,12.75,12.75,0,0,1-2,.16H309.82a11.58,11.58,0,0,0-6.81,2.25l-3.16,2.34a12.72,12.72,0,0,1-7.52,2.48,192.53,192.53,0,0,0-98.21,0,12.55,12.55,0,0,1-8.94-3.7,11.46,11.46,0,0,0-7.49-3.34L12.02,283.58a12.62,12.62,0,0,1-12-13.26,13.346,13.346,0,0,1,.2-1.67Z" transform="translate(180.182 0.05)" fill="#a89069"/>
  <path id="Path_148" data-name="Path 148" d="M71.341,241.86A22,22,0,0,0,94.091,263c9.62-.34,21.1-.51,33.56-.25,40.69.87,91.81,6.47,122.56,26.61a21.93,21.93,0,0,0,13,3.58l1-.07a21.83,21.83,0,0,0,12.84-5.69c17-15.48,55.85-34.25,144.73-35.57h1.09a22,22,0,0,0,20.54-23.3h0l-8.69-138.77-1.31-20.79-2.3-36.37a14.44,14.44,0,0,0-14.4-13.53h-.09l-53,.31q-33.48,1.52-55.46,8.53a95,95,0,0,0-14.56,5.86,56.14,56.14,0,0,0-16.92,12.65,19.1,19.1,0,0,1-11.5,6.21,16.08,16.08,0,0,1-2.08.19,19,19,0,0,1-11.53-3.3c-34.61-23.19-105.14-24.95-144.09-23.95a21.93,21.93,0,0,0-21.36,20.31l-1.58,20.69L82.971,87l-9.06,119.23-2.52,33.17A22.861,22.861,0,0,0,71.341,241.86Z" transform="translate(154.511 0.05)" fill="#f2f2f2"/>
  <path id="Path_149" data-name="Path 149" d="M229.364,67.66c-31.93-10.18-67.55-7.49-97.79,6.86a129.71,129.71,0,0,0-24.31,15c-2.12,1.67-5.15-1.32-3-3a139.2,139.2,0,0,1,97.71-28.66,133.47,133.47,0,0,1,28.52,5.71C233.084,64.39,231.974,68.5,229.364,67.66Z" transform="translate(333.798 0.05)" fill="#3f3d56"/>
  <path id="Path_150" data-name="Path 150" d="M405.831,91.14c-29.68-15.6-65.22-19-97.5-10.15a129,129,0,0,0-26.51,10.54c-2.41,1.29-4.56-2.38-2.15-3.67,30.76-16.41,67.69-20.19,101.28-11a134,134,0,0,1,27,10.65C410.4,88.74,408.261,92.41,405.831,91.14Z" transform="translate(-18.36 0.05)" fill="#3f3d56"/>
  <path id="Path_151" data-name="Path 151" d="M405.852,119.47c-29.68-15.6-65.22-19-97.5-10.15a128.44,128.44,0,0,0-26.51,10.54c-2.41,1.29-4.56-2.38-2.15-3.67,30.76-16.41,67.69-20.19,101.28-11a134,134,0,0,1,27,10.65c2.42,1.27.28,4.94-2.15,3.67Z" transform="translate(-18.38 0.05)" fill="#3f3d56"/>
  <path id="Path_152" data-name="Path 152" d="M278.7,146.28a1.82,1.82,0,0,1,1-1.76,139.29,139.29,0,0,1,80.22-15h.52a4.5,4.5,0,0,1,.51.08,134.2,134.2,0,0,1,47,14.5,2.15,2.15,0,0,1,1.05,1.84v52.85a2.15,2.15,0,0,1-2.18,2.11,2.089,2.089,0,0,1-.51-.07c-.66-.19-1.31-.37-2-.54a211,211,0,0,0-45.35-7.1h-1a238.581,238.581,0,0,0-37.26,1.33,6.7,6.7,0,0,0-.77.08l-1.93.23-.73.1c-2.49.31-4.95.66-7.42,1q-5.34.85-10.69,1.9l-.68.14c-5.72,1.14-11.41,2.46-17.08,3.91a2.15,2.15,0,0,1-2.62-1.54,2.241,2.241,0,0,1-.07-.51V146.36a.19.19,0,0,1-.01-.08Z" transform="translate(-18.413 0.05)" fill="#3f3d56"/>
  <path id="Path_153" data-name="Path 153" d="M325.7,132.37a7,7,0,0,1,5-.44,5.9,5.9,0,0,1,3.33,3.14,14.941,14.941,0,0,1,1.1,4.31c.09.58.1,1.32-.49,1.59a1.21,1.21,0,0,1-1.26-.25,3.3,3.3,0,0,1-.74-1,11.22,11.22,0,0,0-9.48-5.15l-1.56.63A18.77,18.77,0,0,1,325.7,132.37Z" transform="translate(12.507 0.05)" fill="#ff6582"/>
  <path id="Path_154" data-name="Path 154" d="M332.97,144.55c1.22-1.79,2.66-3.71,4.92-4.29,2.62-.68,5.31.67,7.59,2a220.082,220.082,0,0,1,19.66,12.89v.07l-14.68-.9c-3.53-.21-7.19-.46-10.31-1.95a9.76,9.76,0,0,0-3.69-1.37,6.16,6.16,0,0,0-4.26,2.05c-6.77,6.42-8.72,16.22-16.31,21.85a206.521,206.521,0,0,1,17.08-30.35Z" transform="translate(-11.738 0.05)" fill="#fff"/>
  <path id="Path_155" data-name="Path 155" d="M300.269,193.17h1c2.37-.85,4.79-1.6,7.24-2.25,1.59-.42,3.2-.81,4.82-1.13,1.82-.4,3.67-.71,5.51-1a87.1,87.1,0,0,1,10.58-.89.2.2,0,0,0,.21-.17.19.19,0,0,0-.17-.21h-1.35a89.316,89.316,0,0,0-10.59,1c-1.83.3-3.66.65-5.47,1-1.64.37-3.29.78-4.9,1.23C304.789,191.59,302.509,192.33,300.269,193.17Z" transform="translate(39.393 0.05)" fill="#fff"/>
  <path id="Path_156" data-name="Path 156" d="M299.45,194.93l.74-.1c1-.81,2-1.57,3-2.32q1.94-1.41,4-2.64a70.517,70.517,0,0,1,9.41-4.79,94,94,0,0,1,15.89-5,159.24,159.24,0,0,1,18.79-2.95c6.32-.65,12.67-1,19-1.44a.2.2,0,1,0,0-.4l-2.39.16c-6.42.39-12.83.85-19.21,1.57a146.873,146.873,0,0,0-18.75,3.25,91.661,91.661,0,0,0-15.39,5.28,69,69,0,0,0-8.27,4.41c-1.68,1.06-3.31,2.19-4.87,3.4C300.73,193.87,300.08,194.38,299.45,194.93Z" transform="translate(-0.638 0.05)" fill="#fff"/>
  <path id="Path_157" data-name="Path 157" d="M298.8,194.6a6.484,6.484,0,0,1,.77-.08c.3-.24.61-.47.93-.7a64.678,64.678,0,0,1,6.81-4.26c2.14-1.16,4.34-2.22,6.58-3.16a93.168,93.168,0,0,1,15.9-5,156.87,156.87,0,0,1,18.82-2.96c6.32-.65,12.67-1.05,19-1.44a.2.2,0,1,0,0-.4l-2.39.16c-6.42.39-12.84.85-19.21,1.57a143.9,143.9,0,0,0-18.77,3.26,90.1,90.1,0,0,0-15.38,5.28q-2.81,1.27-5.48,2.77a58.587,58.587,0,0,0-7.58,4.96Z" transform="translate(2.684 0.05)" fill="#fff"/>
  <path id="Path_158" data-name="Path 158" d="M299.645,198l.68-.15c.26-.27.5-.55.74-.83q1.83-2.1,3.61-4.25,7-8.37,13.33-17.2,5.4-7.51,10.24-15.34c1.54-2.46,3-4.95,4.49-7.47,1.13-2,2.24-3.92,3.31-5.88l.91-1.7c.69-1.33,1.39-2.68,2.12-4a11.37,11.37,0,0,1,3.43-4.08,5.08,5.08,0,0,1,2.44-.83,7.3,7.3,0,0,1,3.509.9,114.85,114.85,0,0,1,22.281,13.671,107.5,107.5,0,0,1,18.1,17.89c.17.2.54,0,.39-.2-.64-.79-1.29-1.58-1.95-2.36a108.571,108.571,0,0,0-17.12-16.28h-.06c-.55-.44-1.1-.86-1.67-1.27a115.152,115.152,0,0,0-10.93-7.14q-2.89-1.68-5.91-3.19c-.49-.25-1-.51-1.51-.75l-1.53-.74a8.56,8.56,0,0,0-3.25-.89c-3.94,0-6,3.91-7.36,6.59-.44.83-.9,1.67-1.33,2.51-1.7,3.15-3.47,6.3-5.32,9.4-1.11,1.93-2.28,3.84-3.45,5.74q-2.54,4.05-5.21,8h0c-2.08,3.14-4.25,6.23-6.49,9.3q-5.74,7.89-12.06,15.41C302.605,194.63,301.135,196.33,299.645,198Z" transform="translate(-19.613 0.05)" fill="#fff"/>
  <path id="Path_159" data-name="Path 159" d="M317.874,135.46l.4.17a10.68,10.68,0,0,1,8.63-5.23c5.8-.41,10.9,3.46,11.36,8.62a8.49,8.49,0,0,1-1.73,5.93l.37.22a8.85,8.85,0,0,0,1.79-6.18c-.48-5.38-5.78-9.4-11.82-9A11.14,11.14,0,0,0,317.874,135.46Z" transform="translate(12.688 0.05)" fill="#ff6582"/>
  <path id="Path_160" data-name="Path 160" d="M306.48,145.9a10.47,10.47,0,0,1,9.52.61,150.719,150.719,0,0,0-15.45,3.21C302.66,148.62,304.3,146.9,306.48,145.9Z" transform="translate(52.742 0.05)" fill="#fff"/>
  <path id="Path_161" data-name="Path 161" d="M299.97,146.5l.58.42c-.2-.15-.4-.28-.61-.41Z" transform="translate(68.802 0.05)" fill="#fff"/>
  <path id="Path_162" data-name="Path 162" d="M282.772,148.91l.69-.68a19.86,19.86,0,0,1,6.25-4.57,9.9,9.9,0,0,1,3.8-.79,11.84,11.84,0,0,1,3.94.77c.59.21,1.17.45,1.75.7l1.93.92c1.2.6,2.38,1.21,3.55,1.85q3.48,1.92,6.75,4.13c1.13.77,2.24,1.56,3.32,2.37s2,1.53,3,2.33c.21.17.52-.1.31-.27s-.51-.43-.77-.63c-.73-.59-1.47-1.16-2.22-1.73q-2.06-1.53-4.21-3c-2.24-1.48-4.56-2.85-6.95-4.13-1.2-.64-2.41-1.25-3.64-1.83-.37-.18-.75-.35-1.13-.51a18.119,18.119,0,0,0-2.67-1,10.66,10.66,0,0,0-4.05-.36,11.63,11.63,0,0,0-3.73,1.15,24.589,24.589,0,0,0-6.19,4.93C282.282,148.82,282.552,149.1,282.772,148.91Z" transform="translate(68.74 0.05)" fill="#fff"/>
  <path id="Path_163" data-name="Path 163" d="M229.364,96c-31.93-10.19-67.55-7.49-97.79,6.86a129.71,129.71,0,0,0-24.31,15c-2.12,1.67-5.15-1.32-3-3a139.24,139.24,0,0,1,97.71-28.65,134.07,134.07,0,0,1,28.52,5.68c2.59.83,1.48,4.94-1.13,4.1Z" transform="translate(333.798 0.05)" fill="#3f3d56"/>
  <path id="Path_164" data-name="Path 164" d="M229.364,124.32c-31.93-10.19-67.55-7.49-97.79,6.86a128.669,128.669,0,0,0-24.31,15c-2.12,1.67-5.15-1.32-3-3a139.24,139.24,0,0,1,97.71-28.65,134.071,134.071,0,0,1,28.52,5.69C233.084,121.05,231.974,125.15,229.364,124.32Z" transform="translate(333.798 0.05)" fill="#3f3d56"/>
  <path id="Path_165" data-name="Path 165" d="M229.364,152.65c-31.93-10.19-67.55-7.49-97.79,6.86a128.67,128.67,0,0,0-24.31,15c-2.12,1.67-5.15-1.32-3-3a139.19,139.19,0,0,1,97.71-28.65,134.072,134.072,0,0,1,28.52,5.69c2.59.83,1.48,4.93-1.13,4.1Z" transform="translate(333.798 0.05)" fill="#3f3d56"/>
  <path id="Path_166" data-name="Path 166" d="M229.364,181c-31.93-10.19-67.55-7.49-97.79,6.86a129.141,129.141,0,0,0-24.31,15c-2.12,1.67-5.15-1.31-3-3a139.19,139.19,0,0,1,97.71-28.65,133.449,133.449,0,0,1,28.52,5.67c2.59.83,1.48,4.93-1.13,4.1Z" transform="translate(333.798 0.05)" fill="#3f3d56"/>
  <path id="Path_167" data-name="Path 167" d="M229.364,209.3c-31.93-10.18-67.55-7.49-97.79,6.86a129.709,129.709,0,0,0-24.31,15c-2.12,1.67-5.15-1.31-3-3a139.15,139.15,0,0,1,97.71-28.65,132.84,132.84,0,0,1,28.52,5.7C233.084,206.03,231.974,210.14,229.364,209.3Z" transform="translate(333.798 0.05)" fill="#3f3d56"/>
  <path id="Path_168" data-name="Path 168" d="M206.6,33.55v67.93c0,1.35,2.36,2.48,5.54,2.79h.08c.53,0,1.09.07,1.66.07a14.35,14.35,0,0,0,5.15-.84l.45-.19.43-.23c.79-.47,1.25-1,1.25-1.61V27.69a95,95,0,0,0-14.56,5.86Z" transform="translate(241.532 0.05)" fill="orange"/>
  <rect id="Rectangle_4" data-name="Rectangle 4" width="2.08" height="242.23" transform="translate(417.612 49.36)" fill="#e6e6e6"/>
  <path id="Path_169" data-name="Path 169" d="M544.76,215.13a10.13,10.13,0,0,1-9.17-11,10.678,10.678,0,0,1,.32-1.76l-43.18-20.15-26-42.05,20.43-8.25,17.5,33.87,44.38,29.58a10.18,10.18,0,0,1-4.33,19.76Z" transform="translate(-353.369 0.05)" fill="#ffb6b6"/>
  <path id="Path_170" data-name="Path 170" d="M516.89,99.88s-5.08,1.66.5,11.53c4.47,7.9,26.25,53.42,35.14,62.35a8,8,0,0,0,1,9.71l20.56-16.28c.39-5.93-3.53-6.52-5.85-6.32l-4.72-16.73-16.47-41.28-26.46-4.25Z" transform="translate(-419.598 0.05)" fill="orange"/>
  <path id="Path_171" data-name="Path 171" d="M552.7,22.51c-1-3.92-8-6.82,4-12.3,2.93-1.33,2.8-5.91,5.28-8s6.1-3,9-1.56c2.57,1.28,4,4.17,4.32,7a25.791,25.791,0,0,1-1,8.51l.24.34-14.33,11c-1.76,1.35-4,2.75-6,1.75C552.014,28.13,553.3,24.94,552.7,22.51Z" transform="translate(-455.812 0.05)" fill="#2f2e41"/>
</svg>
