<svg xmlns="http://www.w3.org/2000/svg" width="810.1" height="599.575" viewBox="0 0 810.1 599.575">
  <g id="on_the_office" transform="translate(0 -0.025)">
    <path id="Path_50" data-name="Path 50" d="M236.4,59,245,72.4l30.5-15.1,15.7-4.8a12.206,12.206,0,0,0,8.1-15.2A12.828,12.828,0,0,0,296,32h0a12.168,12.168,0,0,0-16.9.2l-13.2,13Z" fill="#a0616a"/>
    <path id="Path_51" data-name="Path 51" d="M250.8,71.8,239.4,54,196.1,73a19.852,19.852,0,0,0-11.6,15.5h0a19.813,19.813,0,0,0,11.2,20.4l69,31a20.075,20.075,0,0,0,26.5-9.3h0a20.251,20.251,0,0,0-9.1-27c-.6-.3-1.3-.6-2-.9L228.3,84.8Z" fill="orange"/>
    <path id="Path_52" data-name="Path 52" d="M707.7,374.7c0-5.4-1.8-9.7-4-9.7H101.2c-2.2,0-4,4.4-4,9.7V595.3a2.046,2.046,0,0,1-1.8,2c-1.6.2-3.2.3-4.9.4h-.1c-.9.1-1.8.1-2.6.2h0c-.5-.8-.9-1.7-1.3-2.5a2.92,2.92,0,0,1-.2-.9V362.1c0-1.5.1-3,.2-4.4a41.126,41.126,0,0,1,.8-6c1.7-9.3,5.5-15.6,9.9-15.6h611a3.662,3.662,0,0,1,1.8.4,7.326,7.326,0,0,1,2.3,1.6,12.875,12.875,0,0,1,2.2,3c2.1,3.8,3.7,9.4,4.2,15.9v.2c.1,1.6.2,3.3.2,4.9l.1,21.4.1,12.8.3,40.1.1,14.2.4,146.2h0a2.006,2.006,0,0,1-2,2h-8a2.006,2.006,0,0,1-2-2Z" fill="#e6e6e6"/>
    <path id="Path_53" data-name="Path 53" d="M101.5,484l-13-2.4,2.8-51.1,19.2,3.5Z" fill="#a0616a"/>
    <path id="Path_54" data-name="Path 54" d="M99.5,497.6l-39.9-7.2.1-.5A15.639,15.639,0,0,1,78,477.2h0l8.3-4.2,12.6,8,3.5.6Z" fill="#340100"/>
    <path id="Path_55" data-name="Path 55" d="M415.9,430H336.4a8.024,8.024,0,0,1-8-8V349.3a8.024,8.024,0,0,1,8-8h79.5a8.024,8.024,0,0,1,8,8V422A8.024,8.024,0,0,1,415.9,430Z" fill="#3f3d56"/>
    <path id="Path_56" data-name="Path 56" d="M410.3,423.3H342a7.127,7.127,0,0,1-7.1-7.1V355a7.127,7.127,0,0,1,7.1-7.1h68.3a7.127,7.127,0,0,1,7.1,7.1v61.1A7.149,7.149,0,0,1,410.3,423.3Z" fill="#fff"/>
    <path id="Path_57" data-name="Path 57" d="M403.5,365.7H348.8a1.8,1.8,0,1,1,0-3.6h54.7a1.8,1.8,0,0,1,0,3.6Z" fill="orange"/>
    <path id="Path_58" data-name="Path 58" d="M403.5,372.8H348.8a1.8,1.8,0,1,1,0-3.6h54.7a1.8,1.8,0,0,1,0,3.6Z" fill="orange"/>
    <path id="Path_59" data-name="Path 59" d="M372.5,379.8H348.8a1.8,1.8,0,1,1,0-3.6h23.7a1.8,1.8,0,0,1,0,3.6Z" fill="orange"/>
    <path id="Path_60" data-name="Path 60" d="M403.5,394.6H348.8a1.8,1.8,0,0,1,0-3.6h54.7a1.8,1.8,0,1,1,0,3.6Z" fill="#e4e4e4"/>
    <path id="Path_61" data-name="Path 61" d="M403.5,401.6H348.8a1.8,1.8,0,0,1,0-3.6h54.7a1.8,1.8,0,1,1,0,3.6Z" fill="#e4e4e4"/>
    <path id="Path_62" data-name="Path 62" d="M372.5,408.7H348.8a1.8,1.8,0,1,1,0-3.6h23.7a1.8,1.8,0,0,1,0,3.6Z" fill="#e4e4e4"/>
    <path id="Path_63" data-name="Path 63" d="M544,235.7H479.1a3.543,3.543,0,0,0-3.5,3.5V341.8h71.8V239.2a3.394,3.394,0,0,0-3.4-3.5ZM511.8,294a7.768,7.768,0,0,1-7.7-7.7V274.5a7.7,7.7,0,0,1,15.4,0v11.8a7.768,7.768,0,0,1-7.7,7.7Z" fill="#2f2e41"/>
    <path id="Path_64" data-name="Path 64" d="M475.4,338.5v9.9a1.9,1.9,0,0,0,1.9,1.9h68.4a1.9,1.9,0,0,0,1.9-1.9v-9.9Z" fill="#3f3d56"/>
    <path id="Path_65" data-name="Path 65" d="M651.5,75.7H374a8.963,8.963,0,0,0-9,9V272a8.963,8.963,0,0,0,9,9H651.5a8.963,8.963,0,0,0,9-9V84.7A8.963,8.963,0,0,0,651.5,75.7Z" fill="#3f3d56"/>
    <path id="Path_66" data-name="Path 66" d="M649.2,82.2H376.3a4.8,4.8,0,0,0-4.8,4.8V269.6a4.8,4.8,0,0,0,4.8,4.8H649.2a4.8,4.8,0,0,0,4.8-4.8V87A4.867,4.867,0,0,0,649.2,82.2Z" fill="#fff"/>
    <path id="Path_67" data-name="Path 67" d="M596,353.8H433.7a3.009,3.009,0,0,1-3-3,1.268,1.268,0,0,1,.1-.6l2.5-12a2.987,2.987,0,0,1,2.9-2.4H593.5a2.987,2.987,0,0,1,2.9,2.4l2.5,12a2.972,2.972,0,0,1-2.3,3.5c-.1,0-.4.1-.6.1Z" fill="#2f2e41"/>
    <path id="Path_68" data-name="Path 68" d="M437.9,338h4a.472.472,0,0,1,.5.5v2a.472.472,0,0,1-.5.5h-4a.472.472,0,0,1-.5-.5v-2A.472.472,0,0,1,437.9,338Z" fill="#3f3d56"/>
    <path id="Path_69" data-name="Path 69" d="M447.9,338h4a.472.472,0,0,1,.5.5v2a.472.472,0,0,1-.5.5h-4a.472.472,0,0,1-.5-.5v-2A.472.472,0,0,1,447.9,338Z" fill="#3f3d56"/>
    <path id="Path_70" data-name="Path 70" d="M457.9,338h4a.472.472,0,0,1,.5.5v2a.472.472,0,0,1-.5.5h-4a.472.472,0,0,1-.5-.5v-2A.472.472,0,0,1,457.9,338Z" fill="#3f3d56"/>
    <path id="Path_71" data-name="Path 71" d="M467.9,338h4a.472.472,0,0,1,.5.5v2a.472.472,0,0,1-.5.5h-4a.472.472,0,0,1-.5-.5v-2A.472.472,0,0,1,467.9,338Z" fill="#3f3d56"/>
    <path id="Path_72" data-name="Path 72" d="M477.9,338h4a.472.472,0,0,1,.5.5v2a.472.472,0,0,1-.5.5h-4a.472.472,0,0,1-.5-.5v-2A.472.472,0,0,1,477.9,338Z" fill="#3f3d56"/>
    <path id="Path_73" data-name="Path 73" d="M487.9,338h4a.472.472,0,0,1,.5.5v2a.472.472,0,0,1-.5.5h-4a.472.472,0,0,1-.5-.5v-2A.472.472,0,0,1,487.9,338Z" fill="#3f3d56"/>
    <path id="Path_74" data-name="Path 74" d="M497.9,338h4a.472.472,0,0,1,.5.5v2a.472.472,0,0,1-.5.5h-4a.472.472,0,0,1-.5-.5v-2A.472.472,0,0,1,497.9,338Z" fill="#3f3d56"/>
    <path id="Path_75" data-name="Path 75" d="M507.9,338h4a.472.472,0,0,1,.5.5v2a.472.472,0,0,1-.5.5h-4a.472.472,0,0,1-.5-.5v-2A.472.472,0,0,1,507.9,338Z" fill="#3f3d56"/>
    <path id="Path_76" data-name="Path 76" d="M517.9,338h4a.472.472,0,0,1,.5.5v2a.472.472,0,0,1-.5.5h-4a.472.472,0,0,1-.5-.5v-2A.472.472,0,0,1,517.9,338Z" fill="#3f3d56"/>
    <path id="Path_77" data-name="Path 77" d="M527.9,338h4a.472.472,0,0,1,.5.5v2a.472.472,0,0,1-.5.5h-4a.472.472,0,0,1-.5-.5v-2A.472.472,0,0,1,527.9,338Z" fill="#3f3d56"/>
    <path id="Path_78" data-name="Path 78" d="M537.9,338h4a.472.472,0,0,1,.5.5v2a.472.472,0,0,1-.5.5h-4a.472.472,0,0,1-.5-.5v-2A.472.472,0,0,1,537.9,338Z" fill="#3f3d56"/>
    <path id="Path_79" data-name="Path 79" d="M547.9,338h4a.472.472,0,0,1,.5.5v2a.472.472,0,0,1-.5.5h-4a.472.472,0,0,1-.5-.5v-2A.472.472,0,0,1,547.9,338Z" fill="#3f3d56"/>
    <path id="Path_80" data-name="Path 80" d="M557.9,338h4a.472.472,0,0,1,.5.5v2a.472.472,0,0,1-.5.5h-4a.472.472,0,0,1-.5-.5v-2A.472.472,0,0,1,557.9,338Z" fill="#3f3d56"/>
    <path id="Path_81" data-name="Path 81" d="M567.9,338h4a.472.472,0,0,1,.5.5v2a.472.472,0,0,1-.5.5h-4a.472.472,0,0,1-.5-.5v-2A.472.472,0,0,1,567.9,338Z" fill="#3f3d56"/>
    <path id="Path_82" data-name="Path 82" d="M577.9,338h4a.472.472,0,0,1,.5.5v2a.472.472,0,0,1-.5.5h-4a.472.472,0,0,1-.5-.5v-2A.472.472,0,0,1,577.9,338Z" fill="#3f3d56"/>
    <path id="Path_83" data-name="Path 83" d="M587.9,338h4a.472.472,0,0,1,.5.5v2a.472.472,0,0,1-.5.5h-4a.472.472,0,0,1-.5-.5v-2A.472.472,0,0,1,587.9,338Z" fill="#3f3d56"/>
    <path id="Path_84" data-name="Path 84" d="M437.7,343h4a.472.472,0,0,1,.5.5v2a.472.472,0,0,1-.5.5h-4a.472.472,0,0,1-.5-.5v-2C437.3,343.2,437.5,343,437.7,343Z" fill="#3f3d56"/>
    <path id="Path_85" data-name="Path 85" d="M447.7,343h4a.472.472,0,0,1,.5.5v2a.472.472,0,0,1-.5.5h-4a.472.472,0,0,1-.5-.5v-2C447.3,343.2,447.5,343,447.7,343Z" fill="#3f3d56"/>
    <path id="Path_86" data-name="Path 86" d="M457.7,343h4a.472.472,0,0,1,.5.5v2a.472.472,0,0,1-.5.5h-4a.472.472,0,0,1-.5-.5v-2C457.3,343.2,457.5,343,457.7,343Z" fill="#3f3d56"/>
    <path id="Path_87" data-name="Path 87" d="M467.7,343h4a.472.472,0,0,1,.5.5v2a.472.472,0,0,1-.5.5h-4a.472.472,0,0,1-.5-.5v-2C467.3,343.2,467.5,343,467.7,343Z" fill="#3f3d56"/>
    <path id="Path_88" data-name="Path 88" d="M477.7,343h4a.472.472,0,0,1,.5.5v2a.472.472,0,0,1-.5.5h-4a.472.472,0,0,1-.5-.5v-2C477.3,343.2,477.5,343,477.7,343Z" fill="#3f3d56"/>
    <path id="Path_89" data-name="Path 89" d="M487.7,343h4a.472.472,0,0,1,.5.5v2a.472.472,0,0,1-.5.5h-4a.472.472,0,0,1-.5-.5v-2C487.3,343.2,487.5,343,487.7,343Z" fill="#3f3d56"/>
    <path id="Path_90" data-name="Path 90" d="M497.7,343h4a.472.472,0,0,1,.5.5v2a.472.472,0,0,1-.5.5h-4a.472.472,0,0,1-.5-.5v-2C497.3,343.2,497.5,343,497.7,343Z" fill="#3f3d56"/>
    <path id="Path_91" data-name="Path 91" d="M507.7,343h4a.472.472,0,0,1,.5.5v2a.472.472,0,0,1-.5.5h-4a.472.472,0,0,1-.5-.5v-2C507.3,343.2,507.5,343,507.7,343Z" fill="#3f3d56"/>
    <path id="Path_92" data-name="Path 92" d="M517.7,343h4a.472.472,0,0,1,.5.5v2a.472.472,0,0,1-.5.5h-4a.472.472,0,0,1-.5-.5v-2C517.3,343.2,517.5,343,517.7,343Z" fill="#3f3d56"/>
    <path id="Path_93" data-name="Path 93" d="M527.7,343h4a.472.472,0,0,1,.5.5v2a.472.472,0,0,1-.5.5h-4a.472.472,0,0,1-.5-.5v-2C527.3,343.2,527.5,343,527.7,343Z" fill="#3f3d56"/>
    <path id="Path_94" data-name="Path 94" d="M537.7,343h4a.472.472,0,0,1,.5.5v2a.472.472,0,0,1-.5.5h-4a.472.472,0,0,1-.5-.5v-2C537.3,343.2,537.5,343,537.7,343Z" fill="#3f3d56"/>
    <path id="Path_95" data-name="Path 95" d="M547.7,343h4a.472.472,0,0,1,.5.5v2a.472.472,0,0,1-.5.5h-4a.472.472,0,0,1-.5-.5v-2C547.3,343.2,547.5,343,547.7,343Z" fill="#3f3d56"/>
    <path id="Path_96" data-name="Path 96" d="M557.7,343h4a.472.472,0,0,1,.5.5v2a.472.472,0,0,1-.5.5h-4a.472.472,0,0,1-.5-.5v-2C557.3,343.2,557.5,343,557.7,343Z" fill="#3f3d56"/>
    <path id="Path_97" data-name="Path 97" d="M567.7,343h4a.472.472,0,0,1,.5.5v2a.472.472,0,0,1-.5.5h-4a.472.472,0,0,1-.5-.5v-2C567.3,343.2,567.5,343,567.7,343Z" fill="#3f3d56"/>
    <path id="Path_98" data-name="Path 98" d="M577.7,343h4a.472.472,0,0,1,.5.5v2a.472.472,0,0,1-.5.5h-4a.472.472,0,0,1-.5-.5v-2C577.3,343.2,577.5,343,577.7,343Z" fill="#3f3d56"/>
    <path id="Path_99" data-name="Path 99" d="M587.7,343h4a.472.472,0,0,1,.5.5v2a.472.472,0,0,1-.5.5h-4a.472.472,0,0,1-.5-.5v-2C587.3,343.2,587.5,343,587.7,343Z" fill="#3f3d56"/>
    <path id="Path_100" data-name="Path 100" d="M485.7,349h39a.472.472,0,0,1,.5.5v2a.472.472,0,0,1-.5.5h-39a.472.472,0,0,1-.5-.5v-2C485.3,349.2,485.5,349,485.7,349Z" fill="#3f3d56"/>
    <path id="Path_101" data-name="Path 101" d="M630.4,582l-7.7-12.4-1.5,7.1c-.3,1.2-.5,2.5-.8,3.8-2.2-1.9-4.5-3.6-6.8-5.3l-21-15.3,2.2,12.7c1.4,7.8,2.8,15.8,6.1,23l1.2,2.4h32.5a8.734,8.734,0,0,0,.5-2.2v-.2C635.7,590.7,633,586.1,630.4,582Z" fill="#f0f0f0"/>
    <path id="Path_102" data-name="Path 102" d="M190.4,582l-7.7-12.4-1.5,7.1c-.3,1.2-.5,2.5-.8,3.8-2.2-1.9-4.5-3.6-6.8-5.3l-21-15.3,2.2,12.7c1.4,7.8,2.8,15.8,6.1,23l1.2,2.4h32.5a8.735,8.735,0,0,0,.5-2.2v-.2C195.7,590.7,193,586.1,190.4,582Z" fill="#f0f0f0"/>
    <path id="Path_103" data-name="Path 103" d="M808.9,599.3l-275.8.3a1.2,1.2,0,0,1,0-2.4l275.8-.3a1.2,1.2,0,0,1,0,2.4Z" fill="#cacaca"/>
    <path id="Path_104" data-name="Path 104" d="M635.5,107.3H380.2a1,1,0,0,1,0-2H635.5a1,1,0,0,1,0,2Z" fill="#cacaca"/>
    <ellipse id="Ellipse_2" data-name="Ellipse 2" cx="6" cy="6.1" rx="6" ry="6.1" transform="translate(391.5 88)" fill="#3f3d56"/>
    <ellipse id="Ellipse_3" data-name="Ellipse 3" cx="6" cy="6.1" rx="6" ry="6.1" transform="translate(412.1 88)" fill="#3f3d56"/>
    <ellipse id="Ellipse_4" data-name="Ellipse 4" cx="6" cy="6.1" rx="6" ry="6.1" transform="translate(432.6 88)" fill="#3f3d56"/>
    <path id="Path_105" data-name="Path 105" d="M623.1,89.5H608.5a1.1,1.1,0,0,0,0,2.2h14.6a1.1,1.1,0,0,0,0-2.2Z" fill="#3f3d56"/>
    <path id="Path_106" data-name="Path 106" d="M623.1,93.6H608.5a1.1,1.1,0,0,0,0,2.2h14.6a1.1,1.1,0,0,0,0-2.2Z" fill="#3f3d56"/>
    <path id="Path_107" data-name="Path 107" d="M623.1,97.8H608.5a1.1,1.1,0,0,0,0,2.2h14.6a1.1,1.1,0,0,0,0-2.2Z" fill="#3f3d56"/>
    <path id="Path_108" data-name="Path 108" d="M496.5,162.7h31.9a4.268,4.268,0,0,1,4.3,4.3h0a4.268,4.268,0,0,1-4.3,4.3H496.5a4.268,4.268,0,0,1-4.3-4.3h0A4.268,4.268,0,0,1,496.5,162.7Z" fill="orange"/>
    <path id="Path_109" data-name="Path 109" d="M475.9,180H549a4.268,4.268,0,0,1,4.3,4.3h0a4.268,4.268,0,0,1-4.3,4.3H475.9a4.268,4.268,0,0,1-4.3-4.3h0A4.332,4.332,0,0,1,475.9,180Z" fill="#e6e6e6"/>
    <path id="Path_110" data-name="Path 110" d="M475.9,197.4H549a4.268,4.268,0,0,1,4.3,4.3h0A4.268,4.268,0,0,1,549,206H475.9a4.268,4.268,0,0,1-4.3-4.3h0A4.268,4.268,0,0,1,475.9,197.4Z" fill="#e6e6e6"/>
    <path id="Path_111" data-name="Path 111" d="M406.3,264a29.112,29.112,0,0,1-1.9,10.5h-28a4.8,4.8,0,0,1-4.8-4.8V234.4a25.58,25.58,0,0,1,4.7-.4,30.024,30.024,0,0,1,30,30Z" fill="#e6e6e6"/>
    <path id="Path_112" data-name="Path 112" d="M350.9,291.9c-.4,12.1-26.3,44.9-39.9,49.6-2.3.8-3.7,1.2-3.7,1.2l-4.7-1.4L245.4,324c-10,5.9-39.9,8.9-64.5,10.4-19.5,1.2-35.7,1.4-35.7,1.4-5.8,43.8-17.1,85.8-36.3,125.1l-23-4,21.7-146.3a16.424,16.424,0,0,1,12-13.4l156.3-40.9s8.6-1.6,26.8,7.2C332.7,277.9,351.2,283,350.9,291.9Z" fill="#340100"/>
    <path id="Path_113" data-name="Path 113" d="M297.2,568l-11.7,6-29.1-42.1,17.3-9Z" fill="#a0616a"/>
    <path id="Path_114" data-name="Path 114" d="M303.9,579.9,268,598.6l-.2-.5a15.872,15.872,0,0,1,6.7-21.3h0l4-8.4,14.8-1.4,3.1-1.6Z" fill="#340100"/>
    <path id="Path_115" data-name="Path 115" d="M321,289.5c5.2,11-2.5,52-12.4,62.4l-2.6,1.8-.9.5c-5.9,20-69.5,78.7-69.5,78.7,21.5,27.4,34.9,61,43.4,98.4l-19.1,8.8L190,435.7a16.275,16.275,0,0,1,.2-18.4l28.5-40.6,46.5-90C298.4,285.6,317.2,281.5,321,289.5Z" fill="#340100"/>
    <path id="Path_116" data-name="Path 116" d="M349.3,296.1c-100.4-15.3-109.5-29-110.5-28.8l-.9.2,14.5-24.6,5.3-6.3-4.1-2.9,1.6-12.2c1.3-4.9,2.3-10.7,1.8-11.5-1.1-1.3-3.7-3.5-3.7-3.6l-.3-.3,3.8-8.8,5.1-70.5,13.1-26,26.9-16,23.8.3,20.9,19.4A44.624,44.624,0,0,1,371.1,153l-10.6,56-3.9,28.9,6.4,6.4-4,4-2.4,13.5L359,277c1.9,13.9-6.5,14.7-7.1,14.9l-1.9,4.8C349.8,296.6,349.8,296.2,349.3,296.1Z" fill="orange"/>
    <path id="Path_117" data-name="Path 117" d="M344,351.8a11.016,11.016,0,0,0,.2-15.5,9.336,9.336,0,0,0-1.5-1.3l11-37.4-19.4,5.9-7.5,34.6A11.078,11.078,0,0,0,344,351.8Z" fill="#a0616a"/>
    <path id="Path_118" data-name="Path 118" d="M345.8,325.9l-20.9-9.4,16.8-69.7-31.3-75.9a27.668,27.668,0,0,1,15-36.1,44.192,44.192,0,0,1,4.8-1.5h0a27.613,27.613,0,0,1,32.7,21.4l19,90.5Z" fill="orange"/>
    <path id="Path_119" data-name="Path 119" d="M263.2,59.6l7.6-31.8a4.119,4.119,0,0,1,5.1-3.1l6.9,1.7a4.119,4.119,0,0,1,3.1,5.1l-7.6,31.8a4.119,4.119,0,0,1-5.1,3.1l-6.9-1.7A4.163,4.163,0,0,1,263.2,59.6Z" fill="#3f3d56"/>
    <path id="Path_120" data-name="Path 120" d="M276.4,26.5a2.268,2.268,0,0,0-2.7,1.7L266,60a2.268,2.268,0,0,0,1.7,2.7l6.9,1.7a2.268,2.268,0,0,0,2.7-1.7l7.6-31.8a2.268,2.268,0,0,0-1.7-2.7Z" fill="orange"/>
    <circle id="Ellipse_5" data-name="Ellipse 5" cx="34" cy="34" r="34" transform="translate(274.4 11.7)" fill="#a0616a"/>
    <path id="Path_121" data-name="Path 121" d="M324.1,68.4l1.2-6.9A20.946,20.946,0,0,0,313.2,39l-1-.5.9-.5a1.31,1.31,0,0,0,.5-1.8,1.28,1.28,0,0,0-1.3-.7l-1,.1a3.494,3.494,0,0,1-3.9-3,3.353,3.353,0,0,1,.6-2.4,30.18,30.18,0,0,1-10.7,2.3c-5.3,0-9.9-2.6-11.7-6.6a10.889,10.889,0,0,1-.8-3.1c-5.6,2.2-8.6,8.8-8.7,8.9l-1.7,3.7.7-4c0-.1,2.2-12.2,5.3-19.7h0C283.8,3.6,297.9-.6,319,.1c20.7.6,25.2,24.2,25.6,26.5,5.9,5.6,3.7,16.3,1.9,22.2-2.9,9.6-8.7,19.1-11.9,19.6a1.426,1.426,0,0,1-1.5-.6,4.2,4.2,0,0,0-2.9-1.9,7.184,7.184,0,0,0-5.2,1.8Z" fill="#2f2e41"/>
    <path id="Path_122" data-name="Path 122" d="M276.9,599.3l-275.7.3a1.2,1.2,0,0,1,0-2.4l275.8-.3a1.155,1.155,0,0,1,1.2,1.2,1.305,1.305,0,0,1-1.3,1.2Z" fill="#cacaca"/>
  </g>
</svg>
